<svg id="icons" xmlns="http://www.w3.org/2000/svg" width="64" height="46" viewBox="0 0 64 46">
  <defs>
    <style>
      .cls-1 {
        fill: #9dbe87;
      }

      .cls-1, .cls-2, .cls-3, .cls-4 {
        fill-rule: evenodd;
      }

      .cls-2 {
        fill: #d6f0c5;
      }

      .cls-3 {
        fill: #aecd99;
      }

      .cls-4 {
        fill: #2b3038;
      }
    </style>
  </defs>
  <g id="r5">
    <g id="money">
      <path class="cls-1" d="M59,33v4H55v4H51v4H1V13H5V9H9V5h4V1H63V33H59Z"/>
      <path class="cls-2" d="M47,20.9V37.1A5,5,0,0,0,43.1,41H8.9A5,5,0,0,0,5,37.1V20.9A5,5,0,0,0,8.9,17H43.1A5,5,0,0,0,47,20.9Z"/>
      <path class="cls-3" d="M39,27a2,2,0,1,1-2,2A2,2,0,0,1,39,27ZM13,27a2,2,0,1,1-2,2A2,2,0,0,1,13,27Z"/>
      <path class="cls-4" d="M62,34H60v2a2,2,0,0,1-2,2H56v2a2,2,0,0,1-2,2H52v2a2,2,0,0,1-2,2H2a2,2,0,0,1-2-2V14a2,2,0,0,1,2-2H4V10A2,2,0,0,1,6,8H8V6a2,2,0,0,1,2-2h2V2a2,2,0,0,1,2-2H62a2,2,0,0,1,2,2V32A2,2,0,0,1,62,34ZM2,14V44H50V14H2Zm4-2H50a2,2,0,0,1,2,2V40h2V10H6v2Zm4-6V8H54a2,2,0,0,1,2,2V36h2V6H10ZM62,2H14V4H58a2,2,0,0,1,2,2V32h2V2ZM44,42H8a4,4,0,0,0-4-4H4V20a4,4,0,0,0,4-4H44a4,4,0,0,0,4,4V38h0A4,4,0,0,0,44,42Zm2-20.368A5.978,5.978,0,0,1,42.367,18H9.633A5.978,5.978,0,0,1,6,21.633V36.367A6.064,6.064,0,0,1,9.633,40H42.367A6.064,6.064,0,0,1,46,36.367V21.633ZM39,32a3,3,0,1,1,3-3A3,3,0,0,1,39,32ZM13,32a3,3,0,1,1,3-3A3,3,0,0,1,13,32Zm16.325-6.251a1.247,1.247,0,0,1-.621-0.177,8.1,8.1,0,0,0-1.846-.755,4.1,4.1,0,0,0-1.01-.117c-0.227,0-.377.015-0.381,0.016-1.034.093-1.628,0.579-1.628,1.335,0,0.638.265,1.066,1.657,1.5l1.435,0.366C29.782,28.6,31,29.715,31,31.651c0,1.9-1.64,3.27-4,3.531V36a1,1,0,1,1-2,0V35.107a8.24,8.24,0,0,1-3.447-1.333A1.085,1.085,0,0,1,21,32.823a1.11,1.11,0,0,1,1.146-1.1,1.166,1.166,0,0,1,.689.222,7.4,7.4,0,0,0,2.64,1.145,6.527,6.527,0,0,0,1.037.079c0.224,0,.369-0.011.372-0.011,1.081-.113,1.679-0.606,1.679-1.388,0-.648-0.28-1.106-1.709-1.533l-1.435-.331C22.565,29.2,21.4,28.116,21.4,26.174c0-1.825,1.4-3.136,3.6-3.428V22a1,1,0,0,1,2,0v0.713a7.872,7.872,0,0,1,2.876.984,1.056,1.056,0,0,1,.613.954A1.12,1.12,0,0,1,29.325,25.749ZM39,28a1,1,0,1,1-1,1A1,1,0,0,1,39,28ZM13,28a1,1,0,1,1-1,1A1,1,0,0,1,13,28Z"/>
    </g>
  </g>
</svg>
