<svg id="icons" xmlns="http://www.w3.org/2000/svg" width="64" height="64" viewBox="0 0 64 64">
  <defs>
    <style>
      .cls-1 {
        fill: #7cb0f1;
      }

      .cls-2 {
        fill: #fff;
      }

      .cls-3 {
        fill: #ebf4ff;
      }

      .cls-4 {
        fill: #2b3038;
        fill-rule: evenodd;
      }
    </style>
  </defs>
  <g id="r_1" data-name="r 1">
    <g id="stats">
      <rect class="cls-1" x="1" y="1" width="62" height="46"/>
      <rect class="cls-2" x="5" y="5" width="54" height="38"/>
      <rect class="cls-3" x="4" y="4" width="56" height="40"/>
      <path id="Rounded_Rectangle_7" data-name="Rounded Rectangle 7" class="cls-4" d="M2,0H62a2,2,0,0,1,2,2V46a2,2,0,0,1-2,2H2a2,2,0,0,1-2-2V2A2,2,0,0,1,2,0ZM2,2H62V46H2V2ZM4,4H60V44H4V4ZM6,6H58V42H6V6ZM40.715,63.715a0.96,0.96,0,0,1-1.358,0L32,56.358l-7.358,7.358a0.96,0.96,0,0,1-1.358-1.358L31,54.642V48h2v6.642l7.715,7.715A0.96,0.96,0,0,1,40.715,63.715ZM22,62h6a1,1,0,0,1,0,2H22A1,1,0,0,1,22,62Zm14,0h6a1,1,0,0,1,0,2H36A1,1,0,0,1,36,62Z"/>
      <path id="Rounded_Rectangle_8" data-name="Rounded Rectangle 8" class="cls-4" d="M49,24a2.991,2.991,0,0,1-2.816-2H39.026L33.291,32.084a3,3,0,1,1-4.991.63l-3.3-3.3-5.3,5.3A3.028,3.028,0,1,1,18.286,33.3l5.3-5.3-7.3-7.3A3.028,3.028,0,1,1,17.7,19.286l7.3,7.3,4.3-4.3A2.97,2.97,0,0,1,29,21a2.993,2.993,0,0,1,5.816-1h3l2.891-5.084a3.044,3.044,0,1,1,1.759,1.03L40.163,20h6.021A2.995,2.995,0,1,1,49,24ZM34.816,22a2.964,2.964,0,0,1-4.1,1.7l-4.3,4.3,3.3,3.3a2.834,2.834,0,0,1,1.818-.246L36.68,22H34.816ZM17,35a1,1,0,1,1-1,1A1,1,0,0,1,17,35ZM15,17a1,1,0,1,1-1,1A1,1,0,0,1,15,17Zm17,3a1,1,0,1,1-1,1A1,1,0,0,1,32,20Zm11-8a1,1,0,1,1-1,1A1,1,0,0,1,43,12Zm6,8a1,1,0,1,1-1,1A1,1,0,0,1,49,20ZM31,33a1,1,0,1,1-1,1A1,1,0,0,1,31,33Zm14,1H55a1,1,0,0,1,0,2H45A1,1,0,0,1,45,34Zm0,4h4a1,1,0,0,1,0,2H45A1,1,0,0,1,45,38Z"/>
    </g>
  </g>
</svg>
