<svg id="icons" xmlns="http://www.w3.org/2000/svg" width="44" height="64" viewBox="0 0 44 64">
  <defs>
    <style>
      .cls-1 {
        fill: #d9efff;
      }

      .cls-1, .cls-2, .cls-3, .cls-4 {
        fill-rule: evenodd;
      }

      .cls-2 {
        fill: #e3abde;
      }

      .cls-3 {
        fill: #bc7cb6;
      }

      .cls-4 {
        fill: #2b3038;
      }
    </style>
  </defs>
  <g id="r5">
    <g id="research">
      <path class="cls-1" d="M1,44A18.992,18.992,0,0,1,15,25.687V13H13V9H27v4H25V25.687A18.992,18.992,0,0,1,39,44H1Z"/>
      <path class="cls-2" d="M39,44A19,19,0,0,1,1,44H17a4,4,0,0,1,8,0H39Z"/>
      <path class="cls-3" d="M11,48a2,2,0,1,1-2,2A2,2,0,0,1,11,48Zm17,4a2,2,0,1,1-2,2A2,2,0,0,1,28,52Z"/>
      <path class="cls-2" d="M40,1a3,3,0,1,1-3,3A3,3,0,0,1,40,1ZM24,1a2,2,0,1,1-2,2A2,2,0,0,1,24,1Z"/>
      <path class="cls-4" d="M14,8H26a2,2,0,0,1,2,2v2a2,2,0,0,1-2,2H14a2,2,0,0,1-2-2V10A2,2,0,0,1,14,8Zm0,2H26v2H14V10Zm6,54a20,20,0,0,1-6-39.082V13a1,1,0,0,1,2,0V26c0,0.319.006-.2,0.006,0.466a0.4,0.4,0,0,1-.283.052,18,18,0,1,0,8.495-.014c-0.071-.017-0.214.023-0.214-0.05,0-1.7,0-1.878,0-.454V13a1,1,0,0,1,2,0V24.918A20,20,0,0,1,20,64ZM24,0a3,3,0,1,1-3,3A3,3,0,0,1,24,0Zm0,2a1,1,0,1,1-1,1A1,1,0,0,1,24,2Zm8,4a2,2,0,1,1-2,2A2,2,0,0,1,32,6Zm8-6a4,4,0,1,1-4,4A4,4,0,0,1,40,0Zm0,2a2,2,0,1,1-2,2A2,2,0,0,1,40,2ZM38,45H25.9A5,5,0,0,1,21,49h0a1,1,0,0,1,0-2h0a3.042,3.042,0,1,0-2.816-2H2a1,1,0,0,1,0-2H16.1a5,5,0,0,1,9.8,0H38A1,1,0,0,1,38,45ZM11,47a3,3,0,1,1-3,3A3,3,0,0,1,11,47Zm0,2a1,1,0,1,1-1,1A1,1,0,0,1,11,49Zm6,6a2,2,0,1,1-2,2A2,2,0,0,1,17,55Zm11-4a3,3,0,1,1-3,3A3,3,0,0,1,28,51Zm0,2a1,1,0,1,1-1,1A1,1,0,0,1,28,53Zm1-6h9a1,1,0,0,1,0,2H29A1,1,0,0,1,29,47ZM6,44H4A16,16,0,0,1,20,28v2A14,14,0,0,0,6,44ZM20,28a1,1,0,1,1-1,1A1,1,0,0,1,20,28Z"/>
    </g>
  </g>
</svg>
